<?xml version="1.0" encoding="utf-8"?>
<!-- Generator: Adobe Illustrator 21.1.0, SVG Export Plug-In . SVG Version: 6.00 Build 0)  -->
<svg version="1.1" id="レイヤー_1" xmlns="http://www.w3.org/2000/svg" xmlns:xlink="http://www.w3.org/1999/xlink" x="0px"
	 y="0px" viewBox="0 0 392 238" style="enable-background:new 0 0 392 238;" xml:space="preserve">
<style type="text/css">
	.st0{fill:none;stroke:#CECECE;stroke-width:2;stroke-linecap:round;stroke-miterlimit:10;}
	.st1{fill:#5E5884;}
	.st2{opacity:0.3;fill:#5E5884;}
	.st3{fill:#666A99;}
	.st4{fill:#7579A3;}
	.st5{fill:#E1C081;}
	.st6{opacity:0.4;fill:#C6C7C7;}
	.st7{fill:#FFFFFF;}
	.st8{fill:#A0774B;}
	.st9{clip-path:url(#SVGID_2_);fill:#C6C7C7;}
	.st10{clip-path:url(#SVGID_2_);fill:#BAD3E0;}
	.st11{opacity:0.8;fill:#FFFFFF;}
	.st12{fill:#3B4F5B;}
	.st13{opacity:0.2;fill:#5E5884;}
	.st14{fill:#B9E4EA;}
	.st15{fill:#4C4C4C;}
	.st16{fill:#9E9E9F;}
	.st17{fill:#565656;}
	.st18{fill:#EAF4A2;}
	.st19{fill:#4A5C6C;}
	.st20{fill:#CBEBF7;stroke:#CECECE;stroke-width:2;stroke-linecap:round;stroke-miterlimit:10;}
	.st21{fill:#E8C9A0;}
	.st22{fill:#00C4C2;}
	.st23{fill:#FFC823;}
	.st24{fill:#C9C9C9;}
	.st25{fill:#F96978;}
	.st26{fill:#FAED00;}
	.st27{fill:#938B86;}
	.st28{opacity:0.1;fill:#4A5C6C;}
	.st29{fill:#B2B2B2;}
	.st30{opacity:0.45;fill:#A3A6C9;}
</style>
<line class="st0" x1="156.1" y1="154.3" x2="43.7" y2="154.3"/>
<g>
	<path class="st1" d="M237.6,131.7c10.6,5.6-57-26.4-111.8,12.2c19.5,0.1,33.4,4,35.8,7.2c2.4,3.2,14.5,6,22.2,0.3
		C191.4,145.6,232.9,129.3,237.6,131.7z"/>
	<path class="st2" d="M234.6,115.4c10.2,1.3-60.9,5.2-81.9,31.4c-5.7,5.2-13.6,12.5-18.4,20.4c18.3-6.7,32.6-9.1,36-7
		c3.4,2.1,15.7,0.5,20.8-7.5C196.2,144.6,229.3,114.8,234.6,115.4z"/>
	<path class="st3" d="M234.7,116.5c11.9,1.5-62.7-4.6-100.4,50.7c18.3-6.7,32.7-8,36.1-5.9c3.4,2.1,15.7,0.5,20.8-7.5
		C196.3,145.7,229.4,115.8,234.7,116.5z"/>
</g>
<path class="st4" d="M323.5,56.8c-21.6-26.5-67.9-33.3-86.6-32.2c-14.3,0.8-26.9,3.5-38.1,10C186,24.1,166.1,19,164.3,22.5
	c-2.2,4.3,3.4,26.8,9.1,38.9c-3.9,8-7.2,23.8-7,36.5c0.8,41.8,32,56.4,70.5,56.4c39.6,0,71.2-15.6,70.9-56.4
	c-0.1-9.7-2.1-22.2-5-30.1C314.3,64.4,325.2,59,323.5,56.8z"/>
<path class="st5" d="M237.8,80c-27.9,0-50.5,8.2-50.5,33.6c0,25.4,22.6,27.8,50.5,27.8c27.9,0,50.5-2.4,50.5-27.8
	C288.3,88.2,265.7,80,237.8,80z"/>
<path class="st6" d="M259.3,127.4c0,6.5-7.4,9.9-19.7,9.9c-12.3,0-19.7-3.4-19.7-9.9c0-6.5,7.4-13.8,19.7-13.8
	C252,113.6,259.3,120.8,259.3,127.4z"/>
<path class="st7" d="M259.5,126c0,6.7-7.6,10.2-20.3,10.2c-12.7,0-20.3-3.5-20.3-10.2c0-6.7,7.6-14.2,20.3-14.2
	C251.9,111.8,259.5,119.3,259.5,126z"/>
<path class="st8" d="M244.2,119.3c0,1.9-2.4,3.4-5.3,3.4c-2.9,0-5.2-1.5-5.2-3.4c0-1.9,2.4-2.3,5.2-2.3
	C241.9,117,244.2,117.4,244.2,119.3z"/>
<g>
	<defs>
		<path id="SVGID_1_" d="M237.9,80c-27.9,0-50.4,8.3-50.4,34.1s22.6,28.2,50.4,28.2s50.4-2.5,50.4-28.2S265.7,80,237.9,80z"/>
	</defs>
	<clipPath id="SVGID_2_">
		<use xlink:href="#SVGID_1_"  style="overflow:visible;"/>
	</clipPath>
	<path class="st9" d="M300.6,104.3c0,0-24.2-7.2-62.8-7.2c-39.2,0-62.7,7.2-62.7,7.2c-8.9,0-16-5.9-16-15.8l0,0
		c0-9.9,7.2-17.9,16-17.9h125.6c8.9,0,16,8,16,17.9l0,0C316.7,98.4,309.5,104.3,300.6,104.3z"/>
	<path class="st10" d="M300.6,105.4c0,0-24.1-10.7-62.8-10.7c-39.2,0-62.8,10.7-62.8,10.7c-8.9,0-16-8-16-17.9l0,0
		c0-9.9,7.2-17.9,16-17.9h125.6c8.9,0,16,8,16,17.9l0,0C316.7,97.3,309.5,105.4,300.6,105.4z"/>
</g>
<g>
	<path class="st8" d="M229.1,122.9c0,0,0.1,0.2,0.2,0.5c0.1,0.1,0.1,0.2,0.3,0.3c0.2,0.1,0.3,0.3,0.5,0.5c0.2,0.2,0.4,0.3,0.7,0.5
		c0.3,0.2,0.6,0.3,0.9,0.4c0.6,0.2,1.3,0.4,2,0.4c0.3,0,0.7,0,1-0.1c0.2,0,0.3,0,0.5-0.1c0.2-0.1,0.3-0.1,0.5-0.2
		c0.3-0.1,0.6-0.3,0.8-0.4c0.2-0.2,0.5-0.3,0.7-0.5c0.2-0.2,0.3-0.4,0.5-0.5c0.1-0.2,0.2-0.3,0.3-0.5c0.2-0.3,0.3-0.4,0.3-0.4
		l0.1-0.1c0.2-0.3,0.6-0.4,0.9-0.2c0.3,0.2,0.4,0.6,0.2,0.9c0,0-0.1,0.2-0.3,0.5c-0.1,0.2-0.2,0.4-0.4,0.6c-0.2,0.2-0.4,0.4-0.6,0.7
		c-0.3,0.2-0.5,0.4-0.8,0.6c-0.3,0.2-0.7,0.4-1.1,0.5c-0.2,0.1-0.4,0.1-0.6,0.2c-0.2,0-0.4,0.1-0.6,0.1c-0.4,0.1-0.8,0.1-1.3,0.1
		c-0.9,0-1.7-0.2-2.4-0.5c-0.4-0.2-0.7-0.3-1-0.5c-0.3-0.2-0.6-0.4-0.9-0.6c-0.3-0.2-0.5-0.4-0.7-0.6c-0.2-0.2-0.4-0.5-0.5-0.7
		c-0.2-0.3-0.2-0.5-0.2-0.5l0,0c-0.1-0.3,0-0.7,0.4-0.9C228.6,122.4,229,122.6,229.1,122.9L229.1,122.9z"/>
	<path class="st8" d="M249.9,123.5c0,0-0.1,0.2-0.2,0.5c-0.1,0.2-0.3,0.4-0.5,0.7c-0.2,0.2-0.4,0.4-0.7,0.6
		c-0.3,0.2-0.6,0.4-0.9,0.6c-0.3,0.2-0.7,0.3-1,0.5c-0.7,0.3-1.6,0.4-2.4,0.5c-0.4,0-0.9,0-1.3-0.1c-0.2,0-0.4-0.1-0.6-0.1
		c-0.2-0.1-0.4-0.1-0.6-0.2c-0.4-0.1-0.7-0.4-1.1-0.5c-0.3-0.2-0.6-0.4-0.8-0.6c-0.2-0.2-0.4-0.5-0.6-0.7c-0.2-0.2-0.3-0.4-0.4-0.6
		c-0.2-0.3-0.3-0.5-0.3-0.5c-0.2-0.3-0.1-0.7,0.2-0.9c0.3-0.2,0.7-0.1,0.9,0.2l0.1,0.1c0,0,0.1,0.1,0.3,0.4c0.1,0.1,0.2,0.3,0.3,0.5
		c0.1,0.2,0.3,0.3,0.5,0.5c0.2,0.2,0.4,0.3,0.7,0.5c0.3,0.1,0.5,0.3,0.8,0.4c0.2,0,0.3,0.1,0.5,0.2c0.2,0,0.3,0.1,0.5,0.1
		c0.3,0.1,0.7,0,1,0.1c0.7,0,1.4-0.2,2-0.4c0.3-0.1,0.6-0.2,0.9-0.4c0.3-0.1,0.5-0.3,0.7-0.5c0.2-0.1,0.4-0.3,0.5-0.5
		c0.1-0.1,0.2-0.2,0.3-0.3c0.1-0.3,0.2-0.5,0.2-0.5c0.1-0.3,0.5-0.5,0.9-0.4C249.9,122.7,250,123.1,249.9,123.5L249.9,123.5
		L249.9,123.5z"/>
</g>
<path class="st11" d="M215.5,100.4c1.4,3.9-1.7,2.9-4,3.5c-2.3,0.5-4.9,1.1-4.7-1.5c0.1-1.7,1.2-3.5,3.5-4
	C212.6,97.8,214.9,98.7,215.5,100.4z"/>
<path class="st11" d="M260,100c-1.7,3.8,1.4,3.1,3.7,3.8c2.3,0.7,4.8,1.5,4.9-1.1c0.1-1.7-0.9-3.6-3.2-4.3
	C263.1,97.7,260.7,98.4,260,100z"/>
<g>
	<path class="st12" d="M217.2,113.4c0,3-2.4,5.4-5.4,5.4c-3,0-5.4-2.4-5.4-5.4c0-3,2.4-5,5.4-5C214.8,108.4,217.2,110.4,217.2,113.4
		z"/>
	<circle class="st7" cx="213.1" cy="112.6" r="1.6"/>
	<circle class="st7" cx="210.3" cy="115.2" r="0.7"/>
</g>
<g>
	<path class="st12" d="M259,113.4c0,3,2.4,5.4,5.4,5.4s5.4-2.4,5.4-5.4c0-3-2.4-5-5.4-5S259,110.4,259,113.4z"/>
	<circle class="st7" cx="263.1" cy="112.6" r="1.6"/>
	<circle class="st7" cx="265.9" cy="115.2" r="0.7"/>
</g>
<path class="st13" d="M171.5,67.5c0,0,0.1-0.6,0.3-1.3c0.1-0.4,0.3-0.8,0.5-1.3c0.1-0.2,0.2-0.5,0.3-0.7c0.1-0.2,0.3-0.4,0.4-0.7
	c0.3-0.4,0.6-0.9,0.9-1.2c0.3-0.4,0.7-0.7,1-0.9c0.6-0.5,1.2-0.7,1.2-0.7l0.1,0.1c0,0-0.3,0.4-0.8,1c-0.4,0.6-1,1.5-1.5,2.4
	c-0.6,0.9-1.1,1.7-1.6,2.4C171.9,67.2,171.6,67.6,171.5,67.5L171.5,67.5z"/>
<path class="st13" d="M322.4,59.2c0,0-0.1,0.1-0.3,0.2c-0.2,0.1-0.4,0.3-0.7,0.5c-0.3,0.2-0.8,0.5-1.2,0.8c-0.5,0.3-1,0.6-1.6,0.9
	c-1.2,0.6-2.6,1.3-4.2,2c-0.8,0.3-1.6,0.7-2.4,1c-0.8,0.3-1.7,0.7-2.5,1c-1.7,0.6-3.4,1.2-5,1.7c-1.6,0.5-3.1,0.9-4.5,1.2
	c-0.7,0.2-1.3,0.3-1.8,0.4c-0.5,0.1-1,0.2-1.4,0.2c-0.4,0.1-0.7,0.1-0.9,0.1c-0.2,0-0.3,0-0.3,0l0-0.1c0,0,0.1,0,0.3-0.1
	c0.2,0,0.5-0.1,0.9-0.2c0.8-0.2,1.8-0.5,3.1-1c2.5-0.8,5.9-2.1,9.3-3.3c3.4-1.2,6.7-2.5,9.2-3.6c1.2-0.5,2.3-1,3-1.3
	c0.4-0.2,0.6-0.3,0.8-0.4C322.3,59.1,322.4,59.1,322.4,59.2L322.4,59.2z"/>
<ellipse transform="matrix(9.067336e-02 -0.9959 0.9959 9.067336e-02 37.8688 351.4779)" class="st4" cx="211.4" cy="155" rx="7.1" ry="20.2"/>
<ellipse transform="matrix(0.9903 -0.1393 0.1393 0.9903 -19.0112 38.3571)" class="st4" cx="264.6" cy="155" rx="19.4" ry="7"/>
<line class="st0" x1="285.4" y1="155.8" x2="364.7" y2="155.8"/>
<path class="st14" d="M351,195.1l-33.7,10.5c-0.8,0.2-1.6-0.2-1.9-1l-6.3-20.3c-0.2-0.8,0.2-1.6,1-1.9l33.7-10.5
	c0.8-0.2,1.6,0.2,1.9,1l6.3,20.3C352.2,194,351.8,194.8,351,195.1z"/>
<path class="st14" d="M111.6,193.7l-0.6-0.2l-11.2-18l-21.5,8.8l-0.8-0.2c-0.8-0.2-1.6,0.2-1.8,1L70,205.7c-0.2,0.8,0.2,1.6,1,1.8
	l34,9.6c0.8,0.2,1.6-0.2,1.8-1l5.8-20.5C112.9,194.7,112.4,193.9,111.6,193.7z"/>
<g>
	<path class="st15" d="M188.6,45l-5.2-5.2c-0.7-0.7-0.2-2,0.9-2l25.3-5.1l53.6,15.1l-26.3,11.9C219.4,63.2,201.3,57.6,188.6,45z"/>
	<polygon class="st15" points="278.7,44.6 204.1,35.4 202.1,13.5 221,22.1 249,28.5 271.5,30.3 287.5,27.4 	"/>
	<path class="st16" d="M278.7,44.6l-14.9,3.9c-0.7,0.2-1.4,0.3-2.2,0.4c-5.8,0.8-10.5,2.3-16.4,1.3l-17.5-3c-2-0.3-4-0.9-5.8-1.7
		c-1.2-0.5-2.4-1.1-3.5-1.9l-14.6-9.5c-0.5-0.4-0.8-1-0.6-1.6l0.2-3.3l15.7,6.1c0.2,0.1,0.4,0.1,0.6,0.2l10.4,2.9
		c0.3,0.1,0.7,0.2,1,0.3l6.8,1.4c0.6,0.1,1.3,0.2,1.9,0.3l16.9,1.3c1.5,0.1,3.1,0.1,4.6,0l19.7-1.7L278.7,44.6z"/>
	
		<ellipse transform="matrix(0.175 -0.9846 0.9846 0.175 182.0199 257.7324)" class="st17" cx="244.8" cy="20.3" rx="8.4" ry="43.4"/>
	<g>
		<circle class="st18" cx="213.2" cy="35.4" r="9"/>
		<g>
			<g>
				<line class="st18" x1="210.7" y1="31.4" x2="215" y2="32.1"/>
				<path class="st19" d="M215,32.6C215,32.6,215,32.6,215,32.6l-4.4-0.8c-0.3,0-0.5-0.3-0.4-0.6c0-0.3,0.3-0.5,0.6-0.4l4.3,0.8
					c0.3,0,0.5,0.3,0.4,0.6C215.5,32.4,215.3,32.6,215,32.6z"/>
			</g>
			<g>
				<polyline class="st18" points="208.6,33.2 212,33.9 216.1,34.8 				"/>
				<path class="st19" d="M216.1,35.3c0,0-0.1,0-0.1,0l-7.6-1.5c-0.3-0.1-0.4-0.3-0.4-0.6c0.1-0.3,0.3-0.4,0.6-0.4l7.6,1.5
					c0.3,0.1,0.4,0.3,0.4,0.6C216.6,35.1,216.4,35.3,216.1,35.3z"/>
			</g>
			<g>
				<line class="st18" x1="212.1" y1="34.3" x2="210.8" y2="39.3"/>
				<path class="st19" d="M210.8,39.8c0,0-0.1,0-0.1,0c-0.3-0.1-0.4-0.3-0.4-0.6l1.3-5c0.1-0.3,0.3-0.4,0.6-0.4
					c0.3,0.1,0.4,0.3,0.4,0.6l-1.3,5C211.2,39.7,211,39.8,210.8,39.8z"/>
			</g>
		</g>
	</g>
</g>
<line class="st20" x1="31.1" y1="154.3" x2="10.9" y2="154.3"/>
<line class="st0" x1="372.5" y1="155.8" x2="386.4" y2="155.8"/>
<g>
	<polygon class="st21" points="215.4,209.6 208.2,198.4 202.2,207.9 	"/>
	<polygon class="st19" points="215.4,209.6 213.3,206.2 211.4,209.1 	"/>
	<path class="st22" d="M207.1,199l-4.9,7.6c-0.3,0.5-1,0.7-1.6,0.3l-33.2-21.1c-0.5-0.3-0.7-1-0.3-1.6l4.9-7.6
		c0.3-0.5,1-0.7,1.6-0.3l33.2,21.1C207.3,197.8,207.4,198.5,207.1,199z"/>
</g>
<g>
	<path class="st23" d="M285.9,215.8l-8.8,4.3c-0.4,0.2-0.9,0-1.1-0.4l-5.5-11.2c-0.2-0.4,0-0.9,0.4-1.1l8.8-4.3
		c0.4-0.2,0.9,0,1.1,0.4l5.5,11.2C286.5,215.1,286.3,215.6,285.9,215.8z"/>
	<path class="st24" d="M278,223.4c0.1,0.1,0.2,0.3,0.3,0.3c1.9,1.3,4.5,1.6,6.7,0.5c1.9-0.9,3.2-2.7,3.6-4.7c0-0.2,0-0.4-0.1-0.5
		l-1.2-2.5c-0.2-0.4-0.7-0.6-1.1-0.4l-8.8,4.3c-0.4,0.2-0.6,0.7-0.4,1.1L278,223.4z"/>
</g>
<g>
	<path class="st22" d="M91.8,125.9c-0.5,0-0.9-0.4-1-0.8l-1-6.8c-0.9-6.1-0.3-12.3,1.7-18.1l2-5.5c0.2-0.5,0.8-0.8,1.3-0.6
		c0.5,0.2,0.8,0.8,0.6,1.3l-2,5.5c-2,5.5-2.5,11.4-1.6,17.1l1,6.8c0.1,0.5-0.3,1.1-0.8,1.1C91.9,125.9,91.8,125.9,91.8,125.9z"/>
	<path class="st22" d="M89.2,113.8c1.6,2.8,1.1,6.2,1.1,6.2s-3.3-1.2-4.9-4c-1.6-2.8-2.1-5.6-1.1-6.2
		C85.3,109.2,87.5,111,89.2,113.8z"/>
	<path class="st25" d="M108.5,91.9c0-1.9-3.7-3.5-8.2-3.5c-0.7,0-1.4,0-2.1,0.1c-0.5-1.6-2.2-2.8-4.1-2.8c-1.9,0.1-3.5,1.3-3.9,3
		c-1.1-0.2-2.3-0.4-3.6-0.4c-4.6,0-8.2,1.6-8.2,3.5c0,1.4,2.1,2.7,5,3.2c-1.4,1.6-1.9,3.1-1.1,4.1c1.3,1.6,5.4,1.2,9.2-1
		c1.1-0.6,2.1-1.4,2.9-2.1c0.6,0.6,1.3,1.3,2.2,1.9c3.5,2.5,7.5,3.3,9,1.8c1-1.1,0.5-3-1.1-4.9C106.8,94.4,108.5,93.3,108.5,91.9z"
		/>
	<ellipse class="st26" cx="93.8" cy="91.6" rx="3.4" ry="1.4"/>
	<g>
		<polygon class="st27" points="104.7,153.7 75.7,153.7 74.5,122.1 106,122.1 		"/>
		<rect x="70" y="118.5" class="st27" width="40.6" height="11.8"/>
	</g>
</g>
<path class="st28" d="M218.6,159.2c-11.9-1.1-21.5-5.1-23.7-9.5c-2.1,0.9-3.4,2.1-3.5,3.5c-0.4,3.9,8.4,7.9,19.5,8.9
	c8.7,0.8,16.2-0.5,19.3-2.9C226.6,159.5,222.7,159.5,218.6,159.2z"/>
<path class="st29" d="M225.7,161.4c4.1-1.3,6.3-3.2,6.2-6.5s-2.7-4.8-6.4-5.5c-3.4-0.6-4,4.4-4,7.7
	C221.5,160.4,222.3,162.4,225.7,161.4z"/>
<path class="st28" d="M283.6,152.2c-0.1-1-0.9-1.9-2.2-2.6c-3.1,3.2-10,6.6-18.3,8.6c-6.4,1.5-12.3,2-16.7,1.5
	c2.9,2.4,10.4,3.4,18.9,2.2C275.9,160.4,284.1,156.1,283.6,152.2z"/>
<path class="st29" d="M250.9,149.3c-4.2,2-6.3,4.4-5.8,7.9c0.6,3.6,3.6,4.9,7.8,5c3.8,0.2,3.7-5.3,3.2-8.9
	C255.5,149.8,254.4,147.6,250.9,149.3z"/>
<g>
	
		<rect x="229.9" y="71.3" transform="matrix(-0.7071 -0.7071 0.7071 -0.7071 351.0339 306.0055)" class="st7" width="18" height="18"/>
	<polygon class="st30" points="238.7,67.4 251.6,80.3 238.7,93.2 	"/>
</g>
<path class="st7" d="M330,189c0,0,0.1,0,0.1,0c0.1,0,0.3-0.1,0.4-0.2l14.4-16.7c0,0,0.1-0.1,0.1-0.2c-0.3-0.2-0.7-0.3-1.1-0.2
	L330,188l-20.4-5.3c-0.3,0.2-0.5,0.5-0.5,0.9L330,189z"/>
<path class="st25" d="M332,183.3c-0.9,0-1.8,0.7-2.3,1.8c-1.1-0.4-2.2-0.4-2.9,0.3c-1.1,1.1-0.6,3.3,1,5.1c1.5,1.6,3.5,2.1,4.7,1.4
	c1.2-0.5,2.1-2.1,2.1-4.2C334.7,185.3,333.5,183.4,332,183.3z"/>
<g>
</g>
<g>
</g>
<g>
</g>
<g>
</g>
<g>
</g>
<g>
</g>
<g>
</g>
<g>
</g>
<g>
</g>
<g>
</g>
<g>
</g>
<g>
</g>
<g>
</g>
<g>
</g>
<g>
</g>
</svg>
